<svg xmlns="http://www.w3.org/2000/svg" version="1.1" xmlns:xlink="http://www.w3.org/1999/xlink" xmlns:svgjs="http://svgjs.dev/svgjs" width="1920" height="1080" preserveAspectRatio="none" viewBox="0 0 1920 1080"><g mask="url(&quot;#SvgjsMask3146&quot;)" fill="none"><rect width="1920" height="1080" x="0" y="0" fill="rgba(25, 19, 8, 1)"></rect><g transform="translate(-192, 0)" stroke-linecap="round" stroke="url(&quot;#SvgjsLinearGradient3147&quot;)"><path d="M652 437.42 L652 642.58" stroke-width="42"></path><path d="M708 478.08 L708 601.91" stroke-width="42"></path><path d="M764 397.87 L764 682.13" stroke-width="42"></path><path d="M820 385.39 L820 694.61" stroke-width="42"></path><path d="M876 465.44 L876 614.56" stroke-width="42"></path><path d="M932 440.66 L932 639.34" stroke-width="42"></path><path d="M988 460.9 L988 619.1" stroke-width="42"></path><path d="M1044 427.8 L1044 652.2" stroke-width="42"></path><path d="M1100 420.14 L1100 659.86" stroke-width="42"></path><path d="M1156 475.94 L1156 604.06" stroke-width="42"></path><path d="M1212 456.02 L1212 623.98" stroke-width="42"></path><path d="M1268 480.88 L1268 599.13" stroke-width="42"></path></g></g><defs><mask id="SvgjsMask3146"><rect width="1920" height="1080" fill="#ffffff"></rect></mask><linearGradient x1="1229.98272" y1="270.01728" x2="690.01728" y2="809.98272" gradientUnits="userSpaceOnUse" id="SvgjsLinearGradient3147"><stop stop-color="rgba(58, 124, 195, 1)" offset="0"></stop><stop stop-color="rgba(115, 113, 252, 0.58)" offset="1"></stop></linearGradient></defs></svg>